<?xml version="1.0" encoding="utf-8"?>
<!-- Generator: Adobe Illustrator 19.0.0, SVG Export Plug-In . SVG Version: 6.00 Build 0)  -->
<svg version="1.1" id="Layer_1" xmlns="http://www.w3.org/2000/svg" xmlns:xlink="http://www.w3.org/1999/xlink" x="0px" y="0px"
	 viewBox="0 0 352.5 139" style="enable-background:new 0 0 352.5 139;" xml:space="preserve">
<style type="text/css">
	.st0{fill:none;}
	.st1{fill:#FFFFFF;}
	.st2{font-family:'MyriadPro-Regular';}
	.st3{font-size:12px;}
	.st4{fill:#FFFFFF;stroke:#231F20;stroke-miterlimit:10;}
	.st5{font-family:'ArialMT';}
	.st6{font-size:60px;}
	.st7{fill:#2F9321;stroke:#231F20;stroke-miterlimit:10;}
</style>
<rect id="XMLID_1_" x="250" y="105.4" class="st0" width="71.3" height="19.3"/>
<text id="XMLID_2_" transform="matrix(1 0 0 1 250.0002 113.9359)" class="st1 st2 st3">Community</text>
<text id="XMLID_46_" transform="matrix(1 0 0 1 162.1665 96.3438)" class="st4 st5 st6">CoDs</text>
<polygon id="XMLID_6_" class="st4" points="106.1,46.8 92.5,35.8 76.9,35.8 106.1,61.4 155.3,19.4 139.3,19.4 "/>
<line id="XMLID_9_" class="st4" x1="163.5" y1="103.2" x2="163.5" y2="119.2"/>
<line id="XMLID_16_" class="st4" x1="163.5" y1="103.2" x2="163.5" y2="119.2"/>
<polyline id="XMLID_24_" class="st4" points="163.5,103.2 136.1,70 163.5,103.2 136.1,70 147.1,56.4 147.1,40.8 147.1,56.4 
	136.1,70 147.1,56.4 147.1,40.8 121.5,70 147.1,40.8 121.5,70 163.5,119.2 121.5,70 163.5,119.2 "/>
<line id="XMLID_23_" class="st4" x1="163.5" y1="103.2" x2="163.5" y2="119.2"/>
<polyline id="XMLID_31_" class="st4" points="72.5,120.2 105.7,92.8 119.3,103.8 134.9,103.8 105.7,78.2 56.5,120.2 "/>
<line id="XMLID_30_" class="st7" x1="72.5" y1="120.2" x2="56.5" y2="120.2"/>
<polygon id="XMLID_37_" class="st4" points="76.9,69.6 65.9,83.2 65.9,98.8 91.5,69.6 49.5,20.4 49.5,36.4 "/>
</svg>
